<svg xmlns="http://www.w3.org/2000/svg" viewBox="0 0 551.94 303.88"><defs><style>.cls-1{stroke:#000;stroke-miterlimit:10;}</style></defs><title>Baldies</title><g id="Layer_2" data-name="Layer 2"><g id="Layer_8" data-name="Layer 8"><path d="M124.14,14.37c32.24-4.55,65.31,1.73,90.15,23.72,15.85,14,27.54,32.63,34.77,52.45,1.1,3,2.11,6.07,3,9.17.25.91.45,1.83.71,2.73.52,1.84-.28.65.26-.7h7.23c.49,1.3-.27,1.12.27.13.38-.7.46-1.67.79-2.41,1-2.29,2.69-4.32,5.42-4.15,4.88.3,6,7.72,6.46,11.47a68.27,68.27,0,0,1,.41,8.95A119.78,119.78,0,0,0,277,141.78c.73,3.18,1.59,6.85-2.72,7.59-2.77.47-4-1.59-6.29-2.4a4.25,4.25,0,0,0-5.66,2.76c-1.11,3-.62,7-.61,10.07,0,35.71-4.6,73.58-29.51,101.25-30.25,33.6-85.1,44.5-126.57,27.32-35.79-14.83-56.16-49.55-67.78-84.79C36.66,199.91,33.25,180,26,184.2c-1,.55-1.35,1.45-2.06,2.24-1.81,2-5.42,3.86-7.69,1.23-2-2.27-1.3-8.15-1.65-11-.5-4.12-1.11-8.24-2-12.3-1-4.52-2.56-8.82-3.65-13.31-1-4-3-12,.63-15.23,2.32-2.06,5.18-.94,7.13.88a23.34,23.34,0,0,1,1.71,2c.94,1.11.63,2.54.66.35l6.4-2.65c.85,1,.86,3.09,1,1.68a19,19,0,0,0-.15-2.39c-.12-2.68-.12-5.37-.05-8a140.67,140.67,0,0,1,3.17-26.28c5.46-25,18.09-48.47,38.65-64.27,16-12.33,35.39-19.09,55.19-22.42,4.75-.8,2.74-8-2-7.23-34.38,5.78-65.79,23-84.07,53.37C25.44,80.36,19.66,103.33,18.8,126c-.15,4-1.48,12.3,1.36,15.71,2.17,2.6,6.36.38,6.4-2.65,0-3.82-4.56-8.23-7.47-10-5.31-3.24-12.65-2.11-16.26,3.14-6.1,8.89-.8,20.93,1.6,30.21a110.62,110.62,0,0,1,2.63,14.21c.51,4.19.08,9.16,1.77,13.09,2.46,5.69,9,7.93,14.73,6,2.33-.8,6-3,6.9-5.52.54-1.52.46.23-.08,0l-.74.43a2.83,2.83,0,0,1-3.37.09c-.47-.13-.81-.84-.86-.79s.67,1.44.39.78c.35.86.63,1.76.93,2.65,4.76,14.33,9.22,28.58,16,42.15,9.82,19.69,23.62,37.62,42,50.06,41.65,28.27,102.91,22.67,141.53-8.46,34.28-27.64,43-72.32,43-114.09,0-2.64,0-5.29,0-7.94,0-.81.07-1.62.11-2.44,0-.09.12-.53,0-.42-1.61,1.72-2.4,1.13-4.65,1.49,0,0-2.56-1.79.4.34a18.93,18.93,0,0,0,1.8,1.23,13.4,13.4,0,0,0,10.35,1.08c7-2.16,8.73-8.61,7.31-15-1.9-8.57-3.49-17.16-3.5-26a63.15,63.15,0,0,0-1.17-13.24c-1.08-5-3.3-10.65-8.18-13.1a12.28,12.28,0,0,0-15.18,3.86c-1.79,2.34-4.76,7.71-3.57,10.89,1.35,3.61,5.83,3.48,7.23,0,1.24-3.09-2.05-9.76-3-12.49A151.21,151.21,0,0,0,245.39,65C231.7,41.11,211,21.57,184.92,12.09c-20.11-7.31-41.76-7.91-62.77-4.95-4.76.67-2.73,7.9,2,7.23Z"/><circle class="cls-1" cx="80.33" cy="77.73" r="4" transform="translate(-31.43 79.57) rotate(-45)"/><circle class="cls-1" cx="71.33" cy="85.73" r="2"/><path d="M100.41,210.73c17.46,7,38.23,12.51,57.1,10.08,20.37-2.62,40.21-15.9,55.51-29.06l-6.4-2.65a41.49,41.49,0,0,1-.63,4.5,109.8,109.8,0,0,1-3,12.72c-3.35,11.26-8.61,22.37-17,30.75-10.31,10.26-25.61,15-39.86,11.41-12.35-3.15-22.34-12.09-29.72-22.16A99,99,0,0,1,105,206.12c-1.69-4.47-8.94-2.53-7.23,2,7.35,19.44,22.29,39.13,42.3,46.36,14.91,5.38,32.37,2.5,45.06-6.87,11.16-8.23,18.41-20.43,23.1-33.28a100.13,100.13,0,0,0,5.86-25.22c.31-3.52-4.17-4.57-6.4-2.65A150.1,150.1,0,0,1,190,199.33c-10.51,6.64-22.45,13.12-35,14.27-17.49,1.6-36.4-3.58-52.55-10.1C97.93,201.69,96,208.94,100.41,210.73Z"/><path d="M546.56,164.62c4.69-6.21,8.41-17.29,1.79-23.52-6.14-5.78-16-3.23-21.29,2.49l2.65-1.1h0l3.75,3.75c.06,1.56-.17.58,0-.09a18.54,18.54,0,0,0,.45-2.64q.79-4.92,1.35-9.87a196.93,196.93,0,0,0,1.14-30.39C535.33,76.7,528.38,49.17,510,29.11c-22.31-24.42-60.17-34-92-26.77-28.2,6.38-50,27-64.68,51.09a189.8,189.8,0,0,0-16.26,34.38q-2.05,5.67-3.75,11.46a28.31,28.31,0,0,0-.95,3.34c-.37,2.3-1.29.61,1.32-.84l5.13,1.35c.71,1.28-.22-.57-.33-.84-.42-1-.83-2-1.32-3a20.53,20.53,0,0,0-4.56-6.07,12.48,12.48,0,0,0-15.31-1.12c-9.89,6.76-5.83,18.81-6.28,28.14s-7.56,17.32-6.6,27.07a10.17,10.17,0,0,0,10.09,9.45c4.66.12,7.75-2.95,10.1-6.59l-4.23,1.72h0l-2.75-3.62c.36,4.19-1.13,9.19-1.48,13.39a249.06,249.06,0,0,0-.68,32.21c1.23,27.26,7,56.17,24.39,78,19.91,25.07,54.62,34.7,85.33,27.44,29.83-7,52.62-30,68.65-55a232.29,232.29,0,0,0,18.7-36.29q2.51-6,4.7-12.22c.43-1.21.86-2.42,1.25-3.64.84-2.6.61-.38-1.14.58l-5.13-1.35c-.52-1.18,0,.4,0,.84a20.68,20.68,0,0,0,1,3.22,15.63,15.63,0,0,0,4.23,6.41c4.12,3.51,10.39,3.63,14.1-.48s4.19-10.25,4.89-15.41c1.05-7.76,4.65-14.47,9.44-20.64,2.92-3.77-2.35-9.11-5.3-5.3-4.12,5.31-7.94,11.13-10.09,17.55-1.3,3.89-1.36,8.06-2.14,12.07-.59,3.06-2,10-6.28,6.3-2.38-2-2.26-5.68-3.43-8.34-.83-1.89-3.52-2.23-5.13-1.35s-2.05,3.16-2.61,4.82q-1.43,4.2-3,8.34a234,234,0,0,1-13.07,28.37c-13.23,24.3-31.67,47.92-57.51,59.52-27.93,12.54-64.22,7.91-86.24-14-19-18.9-25.82-46.95-27.77-72.86a242.49,242.49,0,0,1,.11-36.62q.42-5.57,1.09-11.12a23.43,23.43,0,0,0,.56-4.43,3.86,3.86,0,0,0-2.75-3.62h0a3.89,3.89,0,0,0-4.23,1.72c-1.26,2-4.14,4.61-6,1.52-1.49-2.47.54-7.56,1.34-10,2-6.07,4.74-11.07,5.06-17.68.3-6.21-2.42-14.24,1.14-19.87,2.49-3.94,6.68-3.47,9.36-.06,1.57,2,2.12,4.38,3.33,6.54a3.81,3.81,0,0,0,5.13,1.35c3-1.68,3.84-9.61,4.77-12.46A189.54,189.54,0,0,1,352.83,70c11.58-23.24,28.72-45.22,53.1-55.81,29-12.58,67.51-7.08,91.66,13.37,20.31,17.2,28.94,43.56,31,69.38a191.71,191.71,0,0,1-.53,34.66c-.49,4.77-2.26,9.75-2.07,14.68a3.88,3.88,0,0,0,3.75,3.75c1.58.2,2.47-1.11,3.55-1.95,2.33-1.81,5.32-3.53,8.31-2.4,6.23,2.34,1,11.84-1.48,15.19C537.18,164.69,543.69,168.43,546.56,164.62Z"/><path d="M363.92,72.06l-13,34c-1.15,3,3.68,4.31,4.82,1.33l13-34c1.15-3-3.68-4.31-4.82-1.33Z"/><path d="M513.68,116.19l-4.77,30.87c-.49,3.15,4.33,4.5,4.82,1.33l4.77-30.87c.49-3.15-4.33-4.5-4.82-1.33Z"/><path d="M519.59,124.86l-.77,21.87c-.11,3.22,4.89,3.21,5,0l.77-21.87c.11-3.22-4.89-3.21-5,0Z"/><path d="M350.92,77.06l-7,29c-.75,3.13,4.07,4.46,4.82,1.33l7-29c.75-3.13-4.07-4.46-4.82-1.33Z"/><path d="M359.71,198.69,447,216.2l12.61,2.53-2.24-5.51c-7.41,15.32-20.84,31-37.31,36.54-12.63,4.22-27.31,1.81-37.35-7.14-8.27-7.37-13-17.76-15.63-28.33a79.43,79.43,0,0,1-2.65-19.22c0-4.83-7.5-4.83-7.5,0,0,17.73,5.75,37.92,18.32,50.78a45.71,45.71,0,0,0,39.26,12.93c13.65-2,25.46-10.39,34.55-20.44A92.75,92.75,0,0,0,463.87,217c1-2,.3-5-2.24-5.51L374.31,194l-12.61-2.53C357,190.51,355,197.74,359.71,198.69Z"/></g></g></svg>