<svg xmlns="http://www.w3.org/2000/svg" viewBox="0 0 878.52 318.05"><defs><style>.cls-1{stroke:#000;stroke-miterlimit:10;}</style></defs><title>TB Logo_1</title><g id="Layer_2" data-name="Layer 2"><g id="Layer_10" data-name="Layer 10"><path class="cls-1" d="M388.27,3.05c-17.5.2-40.5,0-52.5,0h0c-12,0-35,.2-52.5,0-9.2-.11-14.5,6-14.5,12.5s6,12,14.5,12h39.5v78.5c0,15,9,18,13,18h0c4,0,13-3,13-18V27.55h39.5c8.5,0,14.5-5.5,14.5-12S397.46,2.95,388.27,3.05Z"/><path class="cls-1" d="M393.77,39.05c5-1,13,0,15,12,1.72,10.3,11,52,9,52-9,0,5-34,8.41-42.79,2.77-7.14,7.09-11.21,14.09-11.21a14.88,14.88,0,0,1,14.5,11c3,10,17,42,8,42-3,0,15.7-77.1,19-87,3-9,10.92-12.74,17-11,7,2,10.31,9.52,8,18-4.06,14.89-15.22,55.78-23,83-4,14-8,19-18,19s-13-8-17-20.11a296.86,296.86,0,0,1-8.45-32.89s-4.91,17.63-9.13,33.24c-2.37,8.76-5.37,19.76-16.37,19.76-14,0-15-8-18.43-19.11-5.24-17-8.91-34.82-11.5-48.73C382.77,45.05,389.3,39.94,393.77,39.05Z"/><path class="cls-1" d="M543.77,26.05c8,7,.83,17.57-2,27-6,20,3,46,26,46s30-18,30-36c0-20-16-41-35-44-19.76-3.12-23.34-14.32-22-17,2-4,6.92,1,31,1,23,0,51,23,51,60,0,42-26,60-55,60s-53-18-53-57C514.77,34.05,534,17.49,543.77,26.05Z"/><circle class="cls-1" cx="80.99" cy="79.05" r="4"/><circle class="cls-1" cx="71.99" cy="87.05" r="2"/><path d="M26.12,137.62C23.37,101,38.87,60.08,68.43,37.74,96.49,16.52,137.28,9.16,171.34,17c26.78,6.18,49,23.21,63.91,46a140.79,140.79,0,0,1,14.3,28.35c1.17,3.17,2.24,6.38,3.14,9.64.25.91.46,1.83.71,2.73.51,1.84-.28.64.26-.7h7.23c.61,1.63.11.4.61-1.09a9.8,9.8,0,0,1,2.18-3.91c3.15-3.07,6.62-.93,8.18,2.43,2.3,5,2.6,11.16,2.38,16.56-.2,4.83,7.3,4.82,7.5,0,.34-8.34-.45-21.2-8.31-26.16a12.25,12.25,0,0,0-15.62,2.52c-2.08,2.36-5.43,8.24-4.15,11.65,1.35,3.61,5.83,3.48,7.23,0,1.24-3.09-2.05-9.76-3-12.49a151.22,151.22,0,0,0-11.86-26.25c-13.68-23.89-34.36-43.43-60.47-52.91C151,.83,108,5.79,76.11,23.77,50.93,38,33.48,61.81,25,89.2c-4.73,15.27-7.59,32.36-6.38,48.42.36,4.78,7.86,4.82,7.5,0Z"/><path d="M873.23,173.94c3.08-6.23,6.83-15,4.62-22-1.41-4.47-6.08-7.14-10.67-6.83-4.2.29-6.91,3.25-9,6.55l3.24-1.86h0l3.75,3.75c.06,1.56-.17.58,0-.09a18.54,18.54,0,0,0,.45-2.64q.79-4.92,1.35-9.87a196.93,196.93,0,0,0,1.14-30.39C867,84,860,56.5,841.71,36.43c-22.31-24.42-60.17-34-92-26.77-28.2,6.38-50,27-64.68,51.09a189.8,189.8,0,0,0-16.26,34.38q-2.05,5.67-3.75,11.46a28.31,28.31,0,0,0-.95,3.34c-.37,2.3-1.29.61,1.32-.84l5.13,1.35c.66,1.19-.13-.2-.22-.56a12.74,12.74,0,0,0-.91-2.15,23.53,23.53,0,0,0-3-5c-2.73-3.37-6.51-5.59-10.94-5.41-9.62.38-14.26,11.3-13.17,19.71.61,4.72,8.12,4.78,7.5,0-.58-4.48,1.22-14.34,7.9-11.91,3.88,1.41,4.64,5.91,6.41,9.09a3.81,3.81,0,0,0,5.13,1.35c3-1.68,3.84-9.61,4.77-12.46a189.54,189.54,0,0,1,10.54-25.84c11.58-23.24,28.72-45.22,53.1-55.81,29-12.58,67.51-7.08,91.66,13.37,20.31,17.2,28.94,43.56,31,69.38a191.71,191.71,0,0,1-.53,34.66c-.49,4.77-2.27,9.75-2.07,14.68a3.88,3.88,0,0,0,3.75,3.75h0a3.7,3.7,0,0,0,3.24-1.86c1.1-1.7,2.32-3.55,4.63-2.51s1.74,3.95,1.34,6.16a42.87,42.87,0,0,1-3.83,11c-2.13,4.31,4.33,8.12,6.48,3.79Z"/><path d="M695.58,79.39l-13,34c-1.15,3,3.68,4.31,4.82,1.33l13-34c1.15-3-3.68-4.31-4.82-1.33Z"/><path d="M845.35,123.51l-4.77,30.87c-.49,3.15,4.33,4.5,4.82,1.33l4.77-30.87c.49-3.15-4.33-4.5-4.82-1.33Z"/><path d="M851.26,132.18l-.77,21.87c-.11,3.22,4.89,3.21,5,0l.77-21.87c.11-3.22-4.89-3.21-5,0Z"/><path d="M682.58,84.39l-7,29c-.75,3.13,4.07,4.46,4.82,1.33l7-29c.75-3.13-4.07-4.46-4.82-1.33Z"/><path d="M20.23,178.16a135.81,135.81,0,0,1-11.1-27.8c-1-4-3.49-11.84-.56-15.57,3.65-4.65,8.64,1.9,9.8,5.26,1.57,4.53,8.82,2.59,7.23-2-2.39-6.9-8.45-13.73-16.47-11.93-7.65,1.73-9.63,9.41-9,16.33,1.15,13.67,7.38,27.44,13.66,39.49,2.23,4.28,8.71.49,6.48-3.79Z"/><path d="M329.21,157.67c4.42,0,3.9,3.51,3.92,8.82s.41,143.18.41,143.18l65.88-.26c4.42,0,6.27.51,6.28,4s-1.82,4.08-6.24,4.1l-62.25.27c-6.87,0-8.47,0-10-1.73s-1.48-4.54-1.51-13.15l-.41-136.4C325.33,161.23,324.79,157.69,329.21,157.67Z"/><path d="M493.58,164.38c-9.76-5.22-28.53-6.53-38.35-6.53-14,0-14.2,4.57-14.1,16.1,0,0,.39,120.33.47,129.49.09,10.35.59,14,14.6,14,13.26,0,23.59,1.47,39.7-9.39,20.73-14,27.6-42.93,27.32-73.09C522.92,203,514.44,175.55,493.58,164.38ZM449.92,167c32.27-1.74,43.52,3.53,51.52,15.53,10,15,14,26.57,14.26,52.82.23,24.78-4.15,43.87-16.26,58.18-11,13-19.25,17.73-49.32,15.72"/><path d="M566.45,157.55c4,0,3.9,3,3.9,15.8,0,8.78.06,121.38.06,130.16,0,10,0,14-3.89,14-4.08,0-3.9-4-3.9-13.82,0-35.86-.06-121.6-.06-130.38C562.57,161.55,562.44,157.55,566.45,157.55Z"/><path d="M685.14,308.9l-64.88.14s0-26.54,0-48.55l38.36-.08c4.72,0,5.9-2.33,5.9-4.1s-1.16-4.09-5.89-4.08c-12.29,0-38.36.23-38.36.08,0-29.38.07-73.86.08-86.46l64.88-.14c4.42,0,6.27-.56,6.27-4.1s-1.83-4.09-6.25-4.08l-62.25.14c-2.13,0-3.76,0-5,.06-.17,0-.32-.05-.5-.05a6.2,6.2,0,0,0-1.88.3,4,4,0,0,0-2.54,1.48c-1,1.22-1.33,2.45-1.44,5.91,0,.39,0,.77,0,1.18v5.1l-.15,131.64v5.1c0,.41,0,.79,0,1.18.09,3.46.41,4.69,1.42,5.91a4,4,0,0,0,2.54,1.47,6.18,6.18,0,0,0,1.88.29c.18,0,.33,0,.5-.05,1.27.05,2.89,0,5,0l62.25-.14c4.42,0,6.27-.56,6.27-4.11S689.56,308.89,685.14,308.9Z"/><path d="M285.33,300.29,246.09,171.46c-2.43-8-4.43-14.49-8.89-13.87-4.46-.61-6.44,5.92-8.84,13.91l-38.83,129c-2.66,8.84-6.76,17.55-.71,17.55,3.63,0,5.14-3.9,7.73-12.51,1.41-4.68,4.07-13.18,5.88-19.21l70-.14c1.83,6,4.51,14.52,5.93,19.19,2.62,8.6,4.12,12.47,7.77,12.47C292.44,317.84,288,309.12,285.33,300.29Zm-80.17-23.36c10-33.3,26.82-91.82,32.08-109.3,5.32,17.46,22.25,75.92,32.38,109.17Z"/><path d="M767.75,157.53c-23.57.16-45.66,14.53-45.61,51.86s24.05,49.5,41.32,49.5c22.1,0,29.49,13.66,29.49,22.35,0,24.31-18.78,28.87-29.43,28.87-20.07,0-27.6-12-27.6-24.4,0-8.16-7.79-8.16-7.79.08,0,12.44,5.93,32,35.4,31.76,17.68-.12,37.21-8.94,37.21-35.61,0-16.39-10.78-30.3-34.35-30.3-26.94,0-37-25.48-37-42.35,0-23.11,10-44.55,38.37-44.55,20.63,0,30.08,16.8,30.08,29.94,0,5.86,6.79,5.86,6.79-.08C804.63,194.62,806.05,157.28,767.75,157.53Z"/><path d="M101.25,157.59c-14.06,0-14.24,4.41-14.23,16,0,0-.59,120.5-.58,129.68,0,10.36-.25,14.19,14.48,14.19,13.26,0,58.21.13,58.21-52.72,0-45.15-41.82-47-44.77-47,2.95,0,35.08-1.13,35.08-28.13C149.44,156.55,111.07,157.59,101.25,157.59Zm41.12,32c0,25-43.18,24.71-47.93,24.71l.38-47.3C117.19,165.28,142.37,165.55,142.37,189.56Zm8.45,75.15c0,39.84-22.63,46.56-56.38,43.84v-1c0-4.3.34-86.27.34-86.27C99.19,221.28,150.82,218.55,150.82,264.72Z"/></g></g></svg>